<svg xmlns="http://www.w3.org/2000/svg" xmlns:svg="http://www.w3.org/2000/svg" id="svg1103" width="50.467" height="59.644" version="1.1" viewBox="0 0 13.353 15.781"><metadata id="metadata1100"/><g id="layer1" transform="translate(-53.039504,-42.987474)"><g id="g108" class="com.sun.star.drawing.PolyPolygonShape" transform="matrix(0.00293594,0,0,0.00293594,36.184272,42.984538)"><g id="id3"><rect id="rect111" width="3953" height="3957" x="6295" y="0" class="BoundingBox" style="fill:none;stroke:none"/></g></g><g id="g113" class="com.sun.star.drawing.OpenBezierShape" transform="matrix(0.00293594,0,0,0.00293594,36.184272,42.984538)"><g id="id4"><rect id="rect116" width="3952" height="3955" x="6296" y="1" class="BoundingBox" style="fill:none;stroke:none"/><path id="path118" d="M 7788,3669 6746,2626 C 5975,1856 8137,-328 8918,454 l 1043,1043" style="fill:none;stroke:#f27800;stroke-width:572;stroke-linejoin:round;stroke-opacity:1"/></g></g><g id="g120" class="com.sun.star.drawing.PolyPolygonShape" transform="matrix(0.00293594,0,0,0.00293594,36.184272,42.984538)"><g id="id5"><rect id="rect123" width="1597" height="1597" x="6726" y="2404" class="BoundingBox" style="fill:none;stroke:none"/></g></g><g id="g125" class="com.sun.star.drawing.PolyPolygonShape" transform="matrix(0.00293594,0,0,0.00293594,36.184272,42.984538)"><g id="id6"><rect id="rect128" width="1021" height="1021" x="7012" y="2690" class="BoundingBox" style="fill:none;stroke:none"/><path id="path130" d="m 8032,3510 -202,200 -818,-820 200,-200 z" style="fill:#171616;stroke:none"/></g></g><g id="g132" class="com.sun.star.drawing.PolyPolygonShape" transform="matrix(0.00293594,0,0,0.00293594,36.184272,42.984538)"><g id="id7"><rect id="rect135" width="1593" height="1593" x="6726" y="2404" class="BoundingBox" style="fill:none;stroke:none"/><path id="path137" d="m 8032,3510 -202,200 -818,-820 200,-200 z" style="fill:none;stroke:#f27800;stroke-width:572;stroke-linejoin:round;stroke-opacity:1"/></g></g><g id="g139" class="com.sun.star.drawing.PolyPolygonShape" transform="matrix(0.00293594,0,0,0.00293594,36.184272,42.984538)"><g id="id8"><rect id="rect142" width="1597" height="1596" x="8696" y="433" class="BoundingBox" style="fill:none;stroke:none"/></g></g><g id="g144" class="com.sun.star.drawing.PolyPolygonShape" transform="matrix(0.00293594,0,0,0.00293594,36.184272,42.984538)"><g id="id9"><rect id="rect147" width="1021" height="1022" x="8982" y="719" class="BoundingBox" style="fill:none;stroke:none"/><path id="path149" d="M 10002,1538 9802,1740 8982,920 9183,720 Z" style="fill:#171616;stroke:none"/></g></g><g id="g151" class="com.sun.star.drawing.PolyPolygonShape" transform="matrix(0.00293594,0,0,0.00293594,36.184272,42.984538)"><g id="id10"><rect id="rect154" width="1593" height="1594" x="8696" y="433" class="BoundingBox" style="fill:none;stroke:none"/><path id="path156" d="M 10002,1538 9802,1740 8982,920 9183,720 Z" style="fill:none;stroke:#f27800;stroke-width:572;stroke-linejoin:round;stroke-opacity:1"/></g></g><g id="g158" class="com.sun.star.drawing.PolyPolygonShape" transform="matrix(0.00293594,0,0,0.00293594,36.184272,42.984538)"><g id="id11"><rect id="rect161" width="3898" height="3907" x="5784" y="1470" class="BoundingBox" style="fill:none;stroke:none"/></g></g><g id="g163" class="com.sun.star.drawing.OpenBezierShape" transform="matrix(0.00293594,0,0,0.00293594,36.184272,42.984538)"><g id="id12"><rect id="rect166" width="3897" height="3906" x="5784" y="1470" class="BoundingBox" style="fill:none;stroke:none"/><path id="path168" d="M 8242,1756 9286,2798 C 9892,3404 7761,5618 7113,4971 L 6070,3927" style="fill:none;stroke:#f27800;stroke-width:572;stroke-linejoin:round;stroke-opacity:1"/></g></g><g id="g170" class="com.sun.star.drawing.PolyPolygonShape" transform="matrix(0.00293594,0,0,0.00293594,36.184272,42.984538)"><g id="id13"><rect id="rect173" width="1023" height="1021" x="7999" y="1714" class="BoundingBox" style="fill:none;stroke:none"/></g></g><g id="g175" class="com.sun.star.drawing.PolyPolygonShape" transform="matrix(0.00293594,0,0,0.00293594,36.184272,42.984538)"><g id="id14"><rect id="rect178" width="1021" height="1021" x="7999" y="1713" class="BoundingBox" style="fill:none;stroke:none"/><path id="path180" d="m 7999,1914 200,-200 820,818 -200,201 z" style="fill:#171616;stroke:none"/></g></g><g id="g182" class="com.sun.star.drawing.PolyPolygonShape" transform="matrix(0.00293594,0,0,0.00293594,36.184272,42.984538)"><g id="id15"><rect id="rect185" width="1597" height="1593" x="7712" y="1427" class="BoundingBox" style="fill:none;stroke:none"/></g></g><g id="g187" class="com.sun.star.drawing.PolyPolygonShape" transform="matrix(0.00293594,0,0,0.00293594,36.184272,42.984538)"><g id="id16"><rect id="rect190" width="1593" height="1593" x="7713" y="1427" class="BoundingBox" style="fill:none;stroke:none"/><path id="path192" d="m 7999,1914 200,-200 820,818 -200,201 z" style="fill:none;stroke:#f27800;stroke-width:572;stroke-linejoin:round;stroke-opacity:1"/></g></g><g id="g194" class="com.sun.star.drawing.PolyPolygonShape" transform="matrix(0.00293594,0,0,0.00293594,36.184272,42.984538)"><g id="id17"><rect id="rect197" width="1596" height="1596" x="5740" y="3397" class="BoundingBox" style="fill:none;stroke:none"/></g></g><g id="g199" class="com.sun.star.drawing.PolyPolygonShape" transform="matrix(0.00293594,0,0,0.00293594,36.184272,42.984538)"><g id="id18"><rect id="rect202" width="1021" height="1021" x="6027" y="3684" class="BoundingBox" style="fill:none;stroke:none"/><path id="path204" d="m 6027,3884 201,-200 819,820 -200,200 z" style="fill:#171616;stroke:none"/></g></g><g id="g206" class="com.sun.star.drawing.PolyPolygonShape" transform="matrix(0.00293594,0,0,0.00293594,36.184272,42.984538)"><g id="id19"><rect id="rect209" width="1593" height="1593" x="5741" y="3398" class="BoundingBox" style="fill:none;stroke:none"/><path id="path211" d="m 6027,3884 201,-200 819,820 -200,200 z" style="fill:none;stroke:#f27800;stroke-width:572;stroke-linejoin:round;stroke-opacity:1"/></g></g><g id="g285" class="com.sun.star.drawing.PolyPolygonShape" transform="matrix(0.00293594,0,0,0.00293594,36.184272,42.984538)"><g id="id32"><rect id="rect288" width="695" height="696" x="9017" y="7039" class="BoundingBox" style="fill:none;stroke:none"/></g></g></g></svg>